<svg width="39.000000" height="39.000000" viewBox="0 0 39 39" fill="none" xmlns="http://www.w3.org/2000/svg" xmlns:xlink="http://www.w3.org/1999/xlink">
	<desc>
			Created with Pixso.
	</desc>
	<defs>
		<clipPath id="clip100_2049">
			<rect id="arrow-left-large" rx="0.000000" width="38.000000" height="38.000000" transform="translate(0.500000 0.500000)" fill="white" fill-opacity="0"/>
		</clipPath>
	</defs>
	<g clip-path="url(#clip100_2049)">
		<path id="union-1" d="M15.77 8.6C16.4 9.23 16.4 10.26 15.77 10.89L8.79 17.87L34.12 17.87C35.02 17.87 35.75 18.6 35.75 19.5C35.75 20.39 35.02 21.12 34.12 21.12L8.79 21.12L15.77 28.1C16.4 28.73 16.4 29.76 15.77 30.39C15.13 31.03 14.11 31.03 13.47 30.39L3.72 20.64C3.09 20.01 3.09 18.98 3.72 18.35L13.47 8.6C14.11 7.96 15.13 7.96 15.77 8.6Z" fill="#353535" fill-opacity="1.000000" fill-rule="evenodd"/>
	</g>
</svg>
