<svg width="25" height="19" viewBox="0 0 25 19" fill="none" xmlns="http://www.w3.org/2000/svg">
<g clip-path="url(#clip0_99_1987)">
<mask id="mask0_99_1987" style="mask-type:alpha" maskUnits="userSpaceOnUse" x="0" y="0" width="25" height="19">
<path d="M22.619 0H2.38095C1.06599 0 0 1.13421 0 2.53333V16.4667C0 17.8658 1.06599 19 2.38095 19H22.619C23.934 19 25 17.8658 25 16.4667V2.53333C25 1.13421 23.934 0 22.619 0Z" fill="white"/>
</mask>
<g mask="url(#mask0_99_1987)">
<path d="M22.619 0H2.38095C1.06599 0 0 1.13421 0 2.53333V16.4667C0 17.8658 1.06599 19 2.38095 19H22.619C23.934 19 25 17.8658 25 16.4667V2.53333C25 1.13421 23.934 0 22.619 0Z" fill="#22438B"/>
<path fill-rule="evenodd" clip-rule="evenodd" d="M3.57145 1.26672L1.15955 1.29966L1.1905 3.80006L21.4072 17.7689L23.8322 17.722L23.7869 15.2368L3.57145 1.26672Z" fill="white"/>
<path fill-rule="evenodd" clip-rule="evenodd" d="M2.38091 1.26672L1.19043 2.53339L22.619 17.7334L23.8095 16.4667L2.38091 1.26672Z" fill="#C7152A"/>
<path fill-rule="evenodd" clip-rule="evenodd" d="M21.4286 1.26672H23.8095V3.80006C23.8095 3.80006 9.82145 13.1683 3.59288 17.7689C3.51788 17.8246 1.21431 17.7727 1.21431 17.7727L1.02979 15.3647L21.4286 1.26672Z" fill="white"/>
<path fill-rule="evenodd" clip-rule="evenodd" d="M22.6702 1.2312L23.8095 2.53333L2.38091 17.7333L1.19043 16.4667L22.6702 1.2312Z" fill="#C7152A"/>
<path fill-rule="evenodd" clip-rule="evenodd" d="M9.52376 1.26672H15.4761V6.33339H23.8095V12.6667H15.4761V17.7334H9.52376V12.6667H1.19043V6.33339H9.52376V1.26672Z" fill="white"/>
<path fill-rule="evenodd" clip-rule="evenodd" d="M10.7142 1.26672H14.2857V7.60006H23.8095V11.4001H14.2857V17.7334H10.7142V11.4001H1.19043V7.60006H10.7142V1.26672Z" fill="#C7152A"/>
<path d="M22.619 0.633301H2.38093C1.39471 0.633301 0.595215 1.48396 0.595215 2.5333V16.4666C0.595215 17.516 1.39471 18.3666 2.38093 18.3666H22.619C23.6052 18.3666 24.4047 17.516 24.4047 16.4666V2.5333C24.4047 1.48396 23.6052 0.633301 22.619 0.633301Z" stroke="black" stroke-opacity="0.1"/>
</g>
</g>
<defs>
<clipPath id="clip0_99_1987">
<rect width="25" height="19" fill="white"/>
</clipPath>
</defs>
</svg>
